<svg xmlns="http://www.w3.org/2000/svg" viewBox="0 0 48 48" width="48" height="48">
  <!-- Blue snake body (top) -->
  <path d="M30 5 C20 5 13 10 13 18 L13 23 L22 23 L22 20 C22 17 24 15 27 15 L34 15 C40 15 46 9 46 4 L34 4 C32 4 30 4.5 30 5Z" fill="#3776AB"/>
  <!-- Blue eye -->
  <circle cx="42" cy="8" r="2.5" fill="#FFD43B"/>
  <!-- Yellow snake body (bottom) -->
  <path d="M26 43 C36 43 43 38 43 30 L43 25 L34 25 L34 28 C34 31 32 33 29 33 L22 33 C16 33 10 39 10 44 L22 44 C24 44 26 43.5 26 43Z" fill="#FFD43B"/>
  <!-- Yellow eye -->
  <circle cx="13" cy="40" r="2.5" fill="#3776AB"/>
</svg>
